<svg width="64" height="64" viewBox="0 0 64 64" fill="none" xmlns="http://www.w3.org/2000/svg">
<rect x="5.33337" y="13.3334" width="53.3333" height="37.3333" fill="#D291FF"/>
<path d="M22.7733 28.6134C22.5067 27.7867 22.2667 26.9867 22 26.16C21.7333 25.3334 21.4933 24.56 21.28 23.7867C21.0667 23.04 20.88 22.3467 20.6933 21.7067H20.64C20.4 22.8534 20.1067 24 19.7333 25.1467C19.3333 26.4267 18.9333 27.76 18.5067 29.0934C18.16 30.4534 17.7333 31.7067 17.3333 32.8267H24.1067C23.9467 32.2667 23.7333 31.6 23.4933 30.9067C23.2533 30.1867 23.0133 29.4134 22.7733 28.6134V28.6134ZM45.6533 27.84C44.1867 27.76 42.8 28.5334 42.1067 29.8667C41.7867 30.48 41.6 31.12 41.52 31.7867H47.144C47.8373 31.7867 48.344 31.7867 48.664 31.76C48.8773 31.7334 49.0907 31.68 49.2773 31.5467V31.28C49.2773 30.9334 49.2213 30.6134 49.1147 30.2934C48.64 28.8 47.2267 27.7867 45.6533 27.84V27.84ZM52.6667 0.800049H11.3333C5.06667 0.800049 0 5.86672 0 12.1334V51.8667C0 58.1334 5.06667 63.2 11.3333 63.2H52.6667C58.9333 63.2 64 58.1334 64 51.8667V12.1334C64 5.86672 58.9333 0.800049 52.6667 0.800049ZM33.8933 44.8294H28.32C28.1333 44.8561 27.9467 44.72 27.8933 44.536L25.7067 38.136H15.7867L13.76 44.4294C13.7067 44.6694 13.4933 44.8294 13.2533 44.8027H8.24C7.94667 44.8027 7.86667 44.6427 7.94667 44.3227L16.5333 19.7067C16.6133 19.44 16.6933 19.2 16.8 18.88C16.9067 18.32 16.96 17.7334 16.96 17.1467C16.9333 17.0134 17.04 16.88 17.1733 16.8534H24.08C24.2667 16.8534 24.4 16.9334 24.4267 17.0667L34.16 44.4C34.24 44.6934 34.1627 44.8294 33.8933 44.8294ZM54.8293 34.1867C54.7733 34.6907 54.7467 35.0667 54.72 35.3067C54.6933 35.4934 54.536 35.6534 54.3467 35.6534C54.1867 35.6534 53.8933 35.68 53.4667 35.7094C53.0427 35.7627 52.5333 35.7867 51.9227 35.7867C51.3093 35.7867 50.6667 35.68 49.976 35.68H41.5227C41.6267 36.5067 41.896 37.3334 42.3493 38.0534C42.832 38.776 43.4987 39.3334 44.2933 39.656C45.36 40.1094 46.536 40.3494 47.7093 40.3227C48.6427 40.2934 49.5733 40.216 50.48 40.0294C51.3093 39.9254 52.1067 39.712 52.856 39.416C52.9893 39.312 53.0693 39.3627 53.0693 39.6294V43.712C53.0693 43.816 53.0427 43.9254 53.0133 44.0294C52.9573 44.1094 52.9067 44.1654 52.8293 44.216C51.976 44.5894 51.096 44.856 50.1627 45.016C48.9067 45.256 47.656 45.3627 46.376 45.336C44.3467 45.336 42.6427 45.016 41.256 44.4027C39.9493 43.84 38.8 42.96 37.8933 41.8694C37.0427 40.8294 36.4267 39.656 36.0533 38.376C35.68 37.12 35.496 35.8134 35.496 34.48C35.496 33.0427 35.7093 31.6267 36.1627 30.24C36.5893 28.9067 37.256 27.68 38.1627 26.5867C39.0427 25.52 40.1333 24.6667 41.3867 24.0534C42.6427 23.44 44.1333 23.2267 45.84 23.2267C47.256 23.2 48.6667 23.4667 49.9733 24.0534C51.0667 24.5334 52.0267 25.2534 52.7733 26.1867C53.4667 27.0934 54.0267 28.1067 54.376 29.2267C54.72 30.2934 54.88 31.3867 54.88 32.48C54.88 33.12 54.8533 33.68 54.8293 34.1867V34.1867Z" fill="#1F0040"/>
</svg>
