<svg width="64" height="64" viewBox="0 0 64 64" fill="none" xmlns="http://www.w3.org/2000/svg">
<g clip-path="url(#clip0)">
<rect x="8" y="13.3334" width="48" height="34.6667" fill="#FF61F6"/>
<path d="M50.2267 0.800049H13.7733C10.1204 0.800049 6.61712 2.25116 4.03412 4.83416C1.45111 7.41717 0 10.9205 0 14.5734L0 49.4267C0 53.0796 1.45111 56.5829 4.03412 59.1659C6.61712 61.7489 10.1204 63.2 13.7733 63.2H50.2267C53.8796 63.2 57.3829 61.7489 59.9659 59.1659C62.5489 56.5829 64 53.0796 64 49.4267V14.5734C64 10.9205 62.5489 7.41717 59.9659 4.83416C57.3829 2.25116 53.8796 0.800049 50.2267 0.800049V0.800049ZM33.944 44.776H27.8453C27.4187 44.776 27.1147 44.76 26.944 44.4747C26.3707 43.3574 25.7973 42.248 25.2267 41.1467C24.6366 40.0135 24.0285 38.8899 23.4027 37.776C22.7525 36.6232 22.1151 35.4631 21.4907 34.296H21.448C20.87 35.4491 20.2762 36.5941 19.6667 37.7307C19.0533 38.8747 18.4427 40.0134 17.8427 41.144C17.2432 42.2756 16.629 43.3993 16 44.5147C15.8827 44.7734 15.6827 44.8 15.3947 44.8H9.51467C9.4 44.8 9.336 44.8454 9.32267 44.7307C9.30724 44.6258 9.32994 44.5189 9.38667 44.4294L17.672 30.816L9.6 17.168C9.512 17.0534 9.49867 16.96 9.55733 16.8827C9.5889 16.8457 9.62882 16.8167 9.67379 16.7982C9.71877 16.7796 9.76751 16.772 9.816 16.776H15.8693C16.0013 16.7706 16.1329 16.7924 16.256 16.84C16.3582 16.8988 16.4457 16.9799 16.512 17.0774C17.0267 18.224 17.6 19.368 18.2293 20.512C18.8587 21.656 19.496 22.7867 20.1387 23.904C20.7813 25.0214 21.376 26.152 21.92 27.296H21.9627C22.5307 26.1227 23.1093 24.9787 23.7013 23.8614C24.2933 22.744 24.8933 21.6214 25.504 20.4907C26.12 19.3574 26.712 18.232 27.2853 17.12C27.3172 17.0128 27.3759 16.9155 27.456 16.8374C27.5624 16.7844 27.6816 16.7622 27.8 16.7734H33.424C33.4873 16.758 33.5541 16.7681 33.6099 16.8015C33.6658 16.835 33.7063 16.889 33.7227 16.952C33.7339 16.9974 33.7321 17.0449 33.7175 17.0893C33.7028 17.1336 33.676 17.173 33.64 17.2027L33.6427 17.2134L25.656 30.3947L34.2 44.392C34.256 44.4907 34.2693 44.6054 34.2427 44.7147C34.216 44.8107 34.1173 44.7467 33.944 44.776V44.776ZM54.4267 43.656C53.0309 44.2374 51.5775 44.6692 50.0907 44.944C48.73 45.1967 47.3493 45.3261 45.9653 45.3307C43.9898 45.3597 42.0326 44.9499 40.2347 44.1307C38.5597 43.3551 37.1593 42.0896 36.2187 40.5014C35.1849 38.6484 34.6794 36.5472 34.7573 34.4267C34.7414 32.4562 35.2455 30.5163 36.2187 28.8027C37.2213 27.0571 38.6953 25.6292 40.472 24.6827C42.7171 23.5095 45.2436 22.9815 47.7707 23.1574C48 23.1707 48.272 23.192 48.5867 23.2214V14.7627C48.5867 14.5627 48.672 14.4614 48.8453 14.4614H54.2533C54.3134 14.453 54.3744 14.4688 54.4229 14.5053C54.4714 14.5418 54.5034 14.596 54.512 14.656C54.5147 14.6773 54.5147 14.6988 54.512 14.72V40.0987C54.512 40.5867 54.5333 41.1147 54.576 41.688C54.6187 42.2587 54.656 42.7734 54.6827 43.232C54.6882 43.3204 54.6667 43.4083 54.621 43.4841C54.5752 43.5598 54.5074 43.6198 54.4267 43.656V43.656ZM47.8747 28.1574C48.1147 28.1814 48.352 28.224 48.584 28.2854V40.0054C48.2766 40.0968 47.96 40.1541 47.64 40.176C47.2683 40.206 46.8955 40.2202 46.5227 40.2187C45.7713 40.2222 45.0242 40.1061 44.3093 39.8747C43.6335 39.6619 43.0163 39.2949 42.5067 38.8027C41.975 38.2669 41.5648 37.623 41.304 36.9147C40.9845 36.0342 40.8316 35.1019 40.8533 34.1654C40.7971 32.9718 41.1039 31.7891 41.7333 30.7734C42.3013 29.9307 43.0773 29.2507 43.9867 28.7974C44.92 28.336 45.9493 28.0987 46.992 28.1094C47.288 28.1147 47.5813 28.128 47.8747 28.1574Z" fill="#470137"/>
</g>
<defs>
<clipPath id="clip0">
<rect width="64" height="64" fill="white"/>
</clipPath>
</defs>
</svg>
