<svg width="64" height="64" viewBox="0 0 64 64" fill="none" xmlns="http://www.w3.org/2000/svg">
<rect x="5.33337" y="13.3334" width="50.6667" height="37.3333" fill="#00E4BB"/>
<path d="M52.6667 0.800049H11.3333C5.06667 0.800049 0 5.86672 0 12.1334V51.8667C0 58.1334 5.06667 63.2 11.3333 63.2H52.6667C58.9333 63.2 64 58.1334 64 51.8667V12.1334C64 5.86672 58.9333 0.800049 52.6667 0.800049ZM33.3333 44.8H27.76C27.5733 44.8294 27.3867 44.6934 27.3333 44.5067L25.1467 38.1334H15.2267L13.2 44.4267C13.1467 44.6667 12.9333 44.8267 12.6933 44.8H7.68C7.38667 44.8 7.30667 44.6401 7.38667 44.3201L15.9733 19.68C16.0533 19.4134 16.1333 19.12 16.24 18.8C16.3733 18.24 16.4533 17.68 16.4533 17.0934C16.4267 16.96 16.5333 16.8267 16.6667 16.8H23.5733C23.76 16.8 23.8933 16.88 23.92 17.0134L33.6 44.3761C33.68 44.6667 33.6 44.8 33.3333 44.8V44.8ZM54 44.8294H49.4107C49.2 44.8561 48.9867 44.72 48.9067 44.536C48.8533 44.3227 48.8 44.08 48.744 43.8694C48.6907 43.6827 48.6907 43.496 48.6907 43.3094C47.8373 44.08 46.7973 44.6427 45.6773 44.96C44.7173 45.2294 43.7067 45.36 42.7173 45.36C41.7333 45.36 40.744 45.2267 39.8107 44.9067C38.9573 44.616 38.16 44.1067 37.544 43.44C36.8507 42.6934 36.344 41.8134 36.048 40.8534C35.6747 39.624 35.4907 38.3467 35.5173 37.0667V23.84C35.4907 23.68 35.5947 23.52 35.784 23.4934H40.9547C41.1173 23.4667 41.2773 23.5734 41.304 23.76V36.376C41.304 37.5467 41.5707 38.48 42.0747 39.1467C42.584 39.8134 43.6213 40.1627 44.824 40.1627C45.4347 40.1627 46.048 40.0534 46.6373 39.84C47.2507 39.6267 47.808 39.336 48.3173 38.96V23.7867C48.3173 23.6 48.4507 23.4934 48.6907 23.4934H53.784C53.92 23.4667 54.0747 23.5734 54.0747 23.7067V40.1334C54.0747 40.856 54.0747 41.496 54.104 42.0534C54.1307 42.616 54.16 43.096 54.184 43.5227C54.2373 43.9494 54.2613 44.1894 54.288 44.48C54.32 44.72 54.2133 44.8294 54 44.8294V44.8294ZM22.2133 28.6134C21.9467 27.7867 21.7067 26.9867 21.44 26.16C21.1733 25.3334 20.9333 24.56 20.72 23.7867C20.5067 23.04 20.32 22.3467 20.1333 21.7067H20.08C19.84 22.8534 19.5467 24 19.1733 25.1467C18.7733 26.4267 18.3733 27.76 17.9467 29.0934C17.6 30.4534 17.1733 31.7067 16.7733 32.8267H23.5467C23.3867 32.2667 23.1733 31.6 22.9333 30.9067C22.6933 30.1867 22.4533 29.4134 22.2133 28.6134V28.6134Z" fill="#002620"/>
</svg>
