<svg width="64" height="64" viewBox="0 0 64 64" fill="none" xmlns="http://www.w3.org/2000/svg">
<g clip-path="url(#clip0)">
<path d="M64 23.3867H57.4187V43.5601H53.6187V23.3867H47.0533V20.0801H64V23.3867ZM45.728 43.5601H32.872V20.0801H45.2187V23.3867H36.672V30.0374H44.5467V33.3281H36.672V40.2721H45.728V43.5601ZM27.84 43.5601H23.6853L12.7467 26.3014C12.4731 25.8719 12.2426 25.4163 12.0587 24.9414H11.9627C12.048 25.4454 12.0907 26.5201 12.0907 28.1681V43.5601H8.41867V20.0801H12.8427L23.416 36.9334C23.8613 37.6294 24.1493 38.1121 24.2773 38.3734H24.3413C24.2347 37.7521 24.1813 36.6961 24.1813 35.2134V20.0774H27.84V43.5601ZM4.632 41.7121C4.632 42.0026 4.57204 42.2903 4.45555 42.5586C4.33906 42.827 4.16833 43.0708 3.95311 43.2761C3.73789 43.4814 3.48241 43.6442 3.20127 43.7552C2.92014 43.8661 2.61886 43.9231 2.31467 43.9227C2.01047 43.9227 1.70925 43.8655 1.42824 43.7542C1.14723 43.6429 0.891937 43.4799 0.676964 43.2743C0.461991 43.0687 0.291552 42.8247 0.175393 42.5562C0.0592346 42.2877 -0.000365266 41.9999 1.68418e-06 41.7094C0.000741617 41.1235 0.244934 40.5619 0.678938 40.1479C1.11294 39.7339 1.70126 39.5014 2.31467 39.5014C2.61886 39.5011 2.92014 39.558 3.20127 39.6689C3.48241 39.7799 3.73789 39.9427 3.95311 40.148C4.16833 40.3533 4.33906 40.5971 4.45555 40.8655C4.57204 41.1339 4.632 41.4215 4.632 41.7121V41.7121Z" fill="#692079"/>
</g>
<defs>
<clipPath id="clip0">
<rect width="64" height="64" fill="white"/>
</clipPath>
</defs>
</svg>
