<svg width="64" height="64" viewBox="0 0 64 64" fill="none" xmlns="http://www.w3.org/2000/svg">
<rect x="13.3334" y="2.66663" width="18.6667" height="18.6667" rx="1" fill="#F24D1D"/>
<path d="M13.3334 23.3334C13.3334 22.2288 14.2288 21.3334 15.3334 21.3334H32V42.6667H15.3334C14.2288 42.6667 13.3334 41.7713 13.3334 40.6667V23.3334Z" fill="#A259FF"/>
<path d="M13.3334 44.6666C13.3334 43.5621 14.2288 42.6666 15.3334 42.6666H30C31.1046 42.6666 32 43.5621 32 44.6666V59.3333C32 60.4379 31.1046 61.3333 30 61.3333H15.3334C14.2288 61.3333 13.3334 60.4379 13.3334 59.3333V44.6666Z" fill="#09CF84"/>
<rect x="32" y="2.66663" width="18.6667" height="18.6667" rx="1" fill="#FF7163"/>
<path d="M32 23.3334C32 22.2288 32.8954 21.3334 34 21.3334H48.6667C49.7712 21.3334 50.6667 22.2288 50.6667 23.3334V40.6667C50.6667 41.7713 49.7712 42.6667 48.6667 42.6667H35C33.3431 42.6667 32 41.3236 32 39.6667V23.3334Z" fill="#19BCFD"/>
<path d="M42.272 23.9493H30.0373V0H42.272C48.8746 0 54.2453 5.37067 54.2453 11.9733C54.2453 18.576 48.8746 23.9493 42.272 23.9493V23.9493ZM33.96 20.0267H42.272C46.712 20.0267 50.3226 16.4133 50.3226 11.976C50.3226 7.53867 46.7093 3.92533 42.272 3.92533H33.96V20.0267V20.0267ZM33.96 23.9493H21.728C15.1253 23.9493 9.75462 18.5787 9.75462 11.976C9.75462 5.37333 15.1253 0 21.728 0H33.9626V23.9493H33.96ZM21.728 3.92267C17.288 3.92267 13.6773 7.536 13.6773 11.9733C13.6773 16.4107 17.288 20.0267 21.728 20.0267H30.04V3.92267H21.728ZM33.96 43.9733H21.728C15.1253 43.9733 9.75462 38.6027 9.75462 32C9.75462 25.3973 15.1253 20.0267 21.728 20.0267H33.9626V43.9733H33.96ZM21.728 23.9493C17.288 23.9493 13.6773 27.5627 13.6773 32C13.6773 36.4373 17.2906 40.0507 21.728 40.0507H30.04V23.9493H21.728ZM21.792 64C15.1546 64 9.75195 58.6293 9.75195 52.0267C9.75195 45.424 15.1226 40.0533 21.7253 40.0533H33.96V51.896C33.96 58.5707 28.5013 64 21.792 64V64ZM21.728 43.9733C19.5936 43.9762 17.5476 44.8253 16.0384 46.3344C14.5292 47.8436 13.6801 49.8897 13.6773 52.024C13.6773 56.464 17.3173 60.0747 21.7946 60.0747C26.3413 60.0747 30.0426 56.4053 30.0426 51.8933V43.9733H21.728V43.9733ZM42.272 43.9733H42.0106C35.408 43.9733 30.0373 38.6027 30.0373 32C30.0373 25.3973 35.408 20.0267 42.0106 20.0267H42.272C48.8746 20.0267 54.2453 25.3973 54.2453 32C54.2453 38.6027 48.8746 43.9733 42.272 43.9733V43.9733ZM42.0133 23.9493C37.5733 23.9493 33.9626 27.5627 33.9626 32C33.9626 36.4373 37.576 40.0507 42.0133 40.0507H42.2746C46.7146 40.0507 50.3253 36.4373 50.3253 32C50.3253 27.5627 46.712 23.9493 42.2746 23.9493H42.0133V23.9493Z" fill="black"/>
</svg>
