<svg width="64" height="64" viewBox="0 0 64 64" fill="none" xmlns="http://www.w3.org/2000/svg">
<g clip-path="url(#clip0)">
<path d="M4.82943 27.2827C4.7041 27.2827 4.67477 27.2214 4.7361 27.1254L5.3921 26.2854C5.45343 26.1921 5.6081 26.1307 5.73343 26.1307H16.8588C16.9814 26.1307 17.0134 26.2241 16.9521 26.3174L16.4214 27.1254C16.3601 27.2214 16.2028 27.3121 16.1094 27.3121L4.82943 27.2827ZM0.125433 30.1494C9.94603e-05 30.1494 -0.0319005 30.0881 0.0320995 29.9947L0.685433 29.1521C0.746766 29.0587 0.904099 28.9974 1.02943 28.9974H15.2374C15.3628 28.9974 15.4241 29.0907 15.3921 29.1841L15.1441 29.9307C15.1121 30.0561 14.9894 30.1174 14.8641 30.1174L0.125433 30.1494ZM7.66677 33.0161C7.54143 33.0161 7.50943 32.9227 7.57343 32.8294L8.0081 32.0507C8.06943 31.9574 8.19477 31.8641 8.3201 31.8641H14.5521C14.6774 31.8641 14.7388 31.9574 14.7388 32.0827L14.6774 32.8294C14.6774 32.9547 14.5521 33.0481 14.4588 33.0481L7.66677 33.0161ZM40.0108 26.7227C38.0481 27.2214 36.7068 27.5947 34.7761 28.0934C34.3068 28.2161 34.2774 28.2481 33.8694 27.7814C33.4054 27.2507 33.0614 26.9094 32.4081 26.5974C30.4428 25.6321 28.5414 25.9121 26.7681 27.0641C24.6481 28.4347 23.5574 30.4614 23.5894 32.9841C23.6188 35.4774 25.3334 37.5334 27.7948 37.8774C29.9148 38.1574 31.6881 37.4107 33.0934 35.8241C33.3734 35.4774 33.6214 35.1041 33.9334 34.6667H27.9201C27.2668 34.6667 27.1094 34.2614 27.3281 33.7334C27.7334 32.7681 28.4801 31.1467 28.9174 30.3361C28.9842 30.1859 29.0936 30.0586 29.232 29.97C29.3704 29.8813 29.5318 29.8352 29.6961 29.8374H41.0374C40.9761 30.6801 40.9761 31.5201 40.8508 32.3627C40.528 34.5812 39.6492 36.6819 38.2961 38.4694C36.0534 41.4294 33.1228 43.2694 29.4161 43.7654C26.3628 44.1707 23.5254 43.5787 21.0348 41.7121C18.7281 39.9654 17.4188 37.6587 17.0774 34.7921C16.6721 31.3947 17.6694 28.3414 19.7254 25.6614C21.9388 22.7654 24.8668 20.9254 28.4508 20.2747C31.3788 19.7414 34.1841 20.0881 36.7068 21.7974C38.3601 22.8907 39.5414 24.3841 40.3228 26.1921C40.5094 26.4721 40.3841 26.6294 40.0108 26.7254V26.7227ZM50.3254 43.9547C47.4881 43.8907 44.9014 43.0801 42.7201 41.2107C40.9054 39.6814 39.7093 37.544 39.3548 35.1974C38.7948 31.6774 39.7601 28.5601 41.8801 25.7867C44.1548 22.7947 46.8961 21.2374 50.6054 20.5867C53.7841 20.0267 56.7761 20.3334 59.4854 22.1734C61.9468 23.8534 63.4748 26.1307 63.8801 29.1201C64.4081 33.3281 63.1948 36.7547 60.2961 39.6854C58.2401 41.7734 55.7148 43.0801 52.8161 43.6721C51.9761 43.8321 51.1361 43.8587 50.3254 43.9547V43.9547ZM57.7388 31.3681C57.7094 30.9601 57.7094 30.6481 57.6481 30.3361C57.0881 27.2507 54.2508 25.5094 51.2908 26.1921C48.3921 26.8454 46.5228 28.6854 45.8374 31.6134C45.2774 34.0454 46.4614 36.5067 48.7041 37.5067C50.4188 38.2534 52.1308 38.1574 53.7841 37.3201C56.2454 36.0401 57.5841 34.0454 57.7414 31.3654L57.7388 31.3681Z" fill="#00ACD7"/>
</g>
<defs>
<clipPath id="clip0">
<rect width="64" height="64" fill="white"/>
</clipPath>
</defs>
</svg>
