<svg width="52" height="67" viewBox="0 0 52 67" fill="none" xmlns="http://www.w3.org/2000/svg">
  <defs>
    <linearGradient id="isotipo_linear_gradient" x1="25.6393" y1="0" x2="25.6393" y2="66.748" gradientUnits="userSpaceOnUse">
      <stop stop-color="#5A9FD4"/>
      <stop offset="1" stop-color="#EEB4C0"/>
    </linearGradient>
  </defs>
  <path d="M39.4615 66.748C35.8806 66.748 32.9443 65.6976 30.6525 63.5968C28.3607 61.496 27.2149 58.5358 27.2149 54.7162C27.2149 54.0955 27.2387 53.4509 27.2865 52.7825C27.3342 52.1618 27.4058 51.5172 27.5013 50.8488C23.634 51.0875 20.0292 50.634 16.687 49.4881C13.3448 48.3422 10.4085 46.6472 7.87798 44.4032C5.39523 42.1114 3.46154 39.366 2.07692 36.1671C0.692308 32.9204 0 29.3634 0 25.496C0 21.9629 0.596817 18.6684 1.79045 15.6127C2.98409 12.5093 4.70292 9.7878 6.94695 7.44827C9.23873 5.10875 11.9363 3.29443 15.0398 2.0053C18.191 0.668435 21.7241 0 25.6393 0C29.5066 0 33.0159 0.644561 36.1671 1.93368C39.3183 3.22281 42.0159 5.03713 44.2599 7.37666C46.504 9.66843 48.2228 12.3422 49.4164 15.3979C50.6578 18.4058 51.2785 21.6286 51.2785 25.0663V53.9284C51.2785 57.7958 50.2281 60.8992 48.1273 63.2387C46.0265 65.5782 43.1379 66.748 39.4615 66.748ZM25.6393 44.9761C26.4032 44.9761 27.1194 44.9523 27.7878 44.9045C28.4562 44.809 29.1724 44.6658 29.9363 44.4748C30.9867 42.0398 32.6101 39.557 34.8064 37.0265C37.0504 34.496 40.2493 32.1326 44.4032 29.9363V25.0663C44.4032 21.4377 43.5915 18.191 41.9682 15.3263C40.3448 12.4615 38.1008 10.1936 35.2361 8.52254C32.4191 6.85146 29.2202 6.01591 25.6393 6.01591C22.0106 6.01591 18.7878 6.87533 15.9708 8.59416C13.1538 10.313 10.9337 12.6286 9.31034 15.5411C7.687 18.4536 6.87533 21.7719 6.87533 25.496C6.87533 29.1724 7.687 32.4907 9.31034 35.4509C10.9337 38.3634 13.1538 40.679 15.9708 42.3979C18.7878 44.1167 22.0106 44.9761 25.6393 44.9761ZM39.0318 60.5889C40.5597 60.5889 41.8249 60.0159 42.8276 58.87C43.878 57.7719 44.4032 56.1724 44.4032 54.0716V37.0265C41.9204 38.6021 39.9629 40.2016 38.5305 41.8249C37.0981 43.4483 36.0477 45.0239 35.3793 46.5517C34.7109 48.0796 34.2573 49.4881 34.0186 50.7772C33.8276 52.0663 33.7321 53.1406 33.7321 54C33.7321 56.1008 34.2573 57.7241 35.3077 58.87C36.4058 60.0159 37.6472 60.5889 39.0318 60.5889Z" fill="url(#isotipo_linear_gradient)"/>
</svg>
