<svg width="222" height="67" viewBox="0 0 222 67" fill="none" xmlns="http://www.w3.org/2000/svg">
  <g fill="#6E7376">
    <path d="M39.4615 66.748C35.8806 66.748 32.9443 65.6976 30.6525 63.5968C28.3607 61.496 27.2149 58.5358 27.2149 54.7162C27.2149 54.0955 27.2387 53.4509 27.2865 52.7825C27.3342 52.1618 27.4058 51.5172 27.5013 50.8488C23.634 51.0875 20.0292 50.634 16.687 49.4881C13.3448 48.3422 10.4085 46.6472 7.87798 44.4032C5.39523 42.1114 3.46154 39.366 2.07692 36.1671C0.692308 32.9204 0 29.3634 0 25.496C0 21.9629 0.596817 18.6684 1.79045 15.6127C2.98409 12.5093 4.70292 9.7878 6.94695 7.44827C9.23873 5.10875 11.9363 3.29443 15.0398 2.0053C18.191 0.668435 21.7241 0 25.6393 0C29.5066 0 33.0159 0.644561 36.1671 1.93368C39.3183 3.22281 42.0159 5.03713 44.2599 7.37666C46.504 9.66843 48.2228 12.3422 49.4164 15.3979C50.6578 18.4058 51.2785 21.6286 51.2785 25.0663V53.9284C51.2785 57.7958 50.2281 60.8992 48.1273 63.2387C46.0265 65.5782 43.1379 66.748 39.4615 66.748ZM25.6393 44.9761C26.4032 44.9761 27.1194 44.9523 27.7878 44.9045C28.4562 44.809 29.1724 44.6658 29.9363 44.4748C30.9867 42.0398 32.6101 39.557 34.8064 37.0265C37.0504 34.496 40.2493 32.1326 44.4032 29.9363V25.0663C44.4032 21.4377 43.5915 18.191 41.9682 15.3263C40.3448 12.4615 38.1008 10.1936 35.2361 8.52254C32.4191 6.85146 29.2202 6.01591 25.6393 6.01591C22.0106 6.01591 18.7878 6.87533 15.9708 8.59416C13.1538 10.313 10.9337 12.6286 9.31034 15.5411C7.687 18.4536 6.87533 21.7719 6.87533 25.496C6.87533 29.1724 7.687 32.4907 9.31034 35.4509C10.9337 38.3634 13.1538 40.679 15.9708 42.3979C18.7878 44.1167 22.0106 44.9761 25.6393 44.9761ZM39.0318 60.5889C40.5597 60.5889 41.8249 60.0159 42.8276 58.87C43.878 57.7719 44.4032 56.1724 44.4032 54.0716V37.0265C41.9204 38.6021 39.9629 40.2016 38.5305 41.8249C37.0981 43.4483 36.0477 45.0239 35.3793 46.5517C34.7109 48.0796 34.2573 49.4881 34.0186 50.7772C33.8276 52.0663 33.7321 53.1406 33.7321 54C33.7321 56.1008 34.2573 57.7241 35.3077 58.87C36.4058 60.0159 37.6472 60.5889 39.0318 60.5889Z"/>
    <path d="M78.2259 51.8515C74.8837 51.8515 71.9235 51.183 69.3453 49.8462C66.8148 48.4615 64.8095 46.5517 63.3294 44.1167C61.8493 41.6817 61.1092 38.8408 61.1092 35.5942V14.4668H67.6981V35.5225C67.6981 37.7188 68.1755 39.6286 69.1304 41.252C70.1331 42.8276 71.4222 44.0451 72.9978 44.9045C74.6211 45.7639 76.34 46.1936 78.1543 46.1936C80.0164 46.1936 81.7352 45.7639 83.3108 44.9045C84.9341 44.0451 86.2233 42.8276 87.1782 41.252C88.1808 39.6286 88.6822 37.7188 88.6822 35.5225V14.4668H95.271V35.5942C95.271 38.8408 94.531 41.6817 93.0509 44.1167C91.6185 46.5517 89.6132 48.4615 87.0349 49.8462C84.4567 51.183 81.5204 51.8515 78.2259 51.8515Z"/>
    <path d="M105.586 50.992V24.8515C105.586 21.6048 106.493 19.0743 108.307 17.2599C110.169 15.3979 112.724 14.4668 115.97 14.4668H123.49V20.1247H117.188C115.564 20.1247 114.323 20.6021 113.464 21.557C112.604 22.4642 112.175 23.7056 112.175 25.2812V50.992H105.586Z"/>
    <path d="M146.697 51.8515C143.355 51.8515 140.394 51.183 137.816 49.8462C135.286 48.4615 133.28 46.5517 131.8 44.1167C130.32 41.6817 129.58 38.8408 129.58 35.5942V14.4668H136.169V35.5225C136.169 37.7188 136.646 39.6286 137.601 41.252C138.604 42.8276 139.893 44.0451 141.469 44.9045C143.092 45.7639 144.811 46.1936 146.625 46.1936C148.487 46.1936 150.206 45.7639 151.782 44.9045C153.405 44.0451 154.694 42.8276 155.649 41.252C156.652 39.6286 157.153 37.7188 157.153 35.5225V14.4668H163.742V35.5942C163.742 38.8408 163.002 41.6817 161.522 44.1167C160.089 46.5517 158.084 48.4615 155.506 49.8462C152.927 51.183 149.991 51.8515 146.697 51.8515Z"/>
    <path d="M174.148 21.1989L177.8 9.31034C176.75 8.97612 175.938 8.37931 175.365 7.51989C174.84 6.61273 174.577 5.68169 174.577 4.72679C174.577 3.43766 175.031 2.33952 175.938 1.43236C176.893 0.525198 178.015 0.0716171 179.304 0.0716171C180.737 0.0716171 181.882 0.572943 182.742 1.57559C183.601 2.5305 184.031 3.67639 184.031 5.01326C184.031 5.92042 183.935 6.77984 183.744 7.59151C183.601 8.35544 183.363 9.23873 183.028 10.2414L179.734 21.1989H174.148Z"/>
    <path d="M191.465 50.992V45.3342H208.939C210.658 45.3342 211.995 44.809 212.95 43.7586C213.953 42.6605 214.454 41.4191 214.454 40.0345C214.454 38.7454 214 37.6233 213.093 36.6684C212.234 35.6658 210.969 35.1645 209.298 35.1645H201.921C198.388 35.1645 195.547 34.305 193.398 32.5862C191.298 30.8196 190.247 28.2653 190.247 24.9231C190.247 23.061 190.701 21.3422 191.608 19.7666C192.515 18.191 193.78 16.9257 195.404 15.9708C197.027 14.9682 198.889 14.4668 200.99 14.4668H217.82V20.1247H201.634C200.202 20.1247 199.032 20.6021 198.125 21.557C197.266 22.4642 196.836 23.5146 196.836 24.7082C196.836 25.9019 197.266 26.9523 198.125 27.8594C199.032 28.7188 200.298 29.1485 201.921 29.1485H208.939C212.855 29.1485 215.839 30.0796 217.892 31.9416C219.993 33.8037 221.043 36.4297 221.043 39.8196C221.043 41.7772 220.565 43.6154 219.611 45.3342C218.656 47.0053 217.319 48.366 215.6 49.4164C213.881 50.4668 211.924 50.992 209.727 50.992H191.465Z"/>
  </g>
  <path d="M39.4615 66.748C35.8806 66.748 32.9443 65.6976 30.6525 63.5968C28.3607 61.496 27.2149 58.5358 27.2149 54.7162C27.2149 54.0955 27.2387 53.4509 27.2865 52.7825C27.3342 52.1618 27.4058 51.5172 27.5013 50.8488C23.634 51.0875 20.0292 50.634 16.687 49.4881C13.3448 48.3422 10.4085 46.6472 7.87798 44.4032C5.39523 42.1114 3.46154 39.366 2.07692 36.1671C0.692308 32.9204 0 29.3634 0 25.496C0 21.9629 0.596817 18.6684 1.79045 15.6127C2.98409 12.5093 4.70292 9.7878 6.94695 7.44827C9.23873 5.10875 11.9363 3.29443 15.0398 2.0053C18.191 0.668435 21.7241 0 25.6393 0C29.5066 0 33.0159 0.644561 36.1671 1.93368C39.3183 3.22281 42.0159 5.03713 44.2599 7.37666C46.504 9.66843 48.2228 12.3422 49.4164 15.3979C50.6578 18.4058 51.2785 21.6286 51.2785 25.0663V53.9284C51.2785 57.7958 50.2281 60.8992 48.1273 63.2387C46.0265 65.5782 43.1379 66.748 39.4615 66.748ZM25.6393 44.9761C26.4032 44.9761 27.1194 44.9523 27.7878 44.9045C28.4562 44.809 29.1724 44.6658 29.9363 44.4748C30.9867 42.0398 32.6101 39.557 34.8064 37.0265C37.0504 34.496 40.2493 32.1326 44.4032 29.9363V25.0663C44.4032 21.4377 43.5915 18.191 41.9682 15.3263C40.3448 12.4615 38.1008 10.1936 35.2361 8.52254C32.4191 6.85146 29.2202 6.01591 25.6393 6.01591C22.0106 6.01591 18.7878 6.87533 15.9708 8.59416C13.1538 10.313 10.9337 12.6286 9.31034 15.5411C7.687 18.4536 6.87533 21.7719 6.87533 25.496C6.87533 29.1724 7.687 32.4907 9.31034 35.4509C10.9337 38.3634 13.1538 40.679 15.9708 42.3979C18.7878 44.1167 22.0106 44.9761 25.6393 44.9761ZM39.0318 60.5889C40.5597 60.5889 41.8249 60.0159 42.8276 58.87C43.878 57.7719 44.4032 56.1724 44.4032 54.0716V37.0265C41.9204 38.6021 39.9629 40.2016 38.5305 41.8249C37.0981 43.4483 36.0477 45.0239 35.3793 46.5517C34.7109 48.0796 34.2573 49.4881 34.0186 50.7772C33.8276 52.0663 33.7321 53.1406 33.7321 54C33.7321 56.1008 34.2573 57.7241 35.3077 58.87C36.4058 60.0159 37.6472 60.5889 39.0318 60.5889Z" fill="url(#paint0_linear)"/>
  <defs>
    <linearGradient id="paint0_linear" x1="25.6393" y1="0" x2="25.6393" y2="66.748" gradientUnits="userSpaceOnUse">
      <stop stop-color="#5A9FD4"/>
      <stop offset="1" stop-color="#EEB4C0"/>
    </linearGradient>
  </defs>
</svg>
