<svg width="64" height="64" viewBox="0 0 64 64" fill="none" xmlns="http://www.w3.org/2000/svg">
<g clip-path="url(#clip0)">
<path d="M31.9947 64.0001C31.1387 64.0001 30.2853 63.7761 29.536 63.3414L21.7067 58.7094C20.5387 58.0561 21.1093 57.8241 21.4933 57.6881C23.0533 57.1467 23.368 57.0214 25.0347 56.0774C25.208 55.9787 25.4373 56.0161 25.616 56.1227L31.632 59.6934C31.8507 59.8134 32.1573 59.8134 32.3573 59.6934L55.8107 46.1574C56.0293 46.0321 56.168 45.7814 56.168 45.5227V18.4561C56.168 18.1921 56.0267 17.9441 55.8027 17.8107L32.36 4.28539C32.144 4.16006 31.856 4.16006 31.6373 4.28539L8.2 17.8134C7.97334 17.9441 7.82934 18.2001 7.82934 18.4561V45.5227C7.82934 45.7814 7.97334 46.0267 8.2 46.1494L14.624 49.8614C18.1093 51.6054 20.2453 49.5521 20.2453 47.4881V20.7654C20.2453 20.3867 20.5493 20.0907 20.928 20.0907H23.9013C24.272 20.0907 24.5813 20.3894 24.5813 20.7654V47.4881C24.5813 52.1414 22.048 54.8081 17.6373 54.8081C16.2827 54.8081 15.2133 54.8081 12.2347 53.3387L6.08 49.8001C4.56 48.9227 3.62134 47.2801 3.62134 45.5227V18.4561C3.62134 16.6987 4.56267 15.0561 6.08 14.1814L29.5333 0.62939C31.0187 -0.21061 32.9893 -0.21061 34.4613 0.62939L57.912 14.1814C59.432 15.0587 60.376 16.6987 60.376 18.4561V45.5227C60.376 47.2801 59.432 48.9174 57.912 49.8001L34.4613 63.3414C33.7147 63.7761 32.864 64.0001 31.9947 64.0001ZM50.9307 37.3147C50.9307 32.2481 47.5067 30.8987 40.2987 29.9467C33.016 28.9841 32.2747 28.4854 32.2747 26.7814C32.2747 25.3734 32.9013 23.4934 38.296 23.4934C43.1147 23.4934 44.8907 24.5307 45.6213 27.7787C45.6853 28.0854 45.9653 28.3094 46.28 28.3094H49.3227C49.512 28.3094 49.6907 28.2267 49.8187 28.0934C49.9467 27.9494 50.016 27.7654 49.9973 27.5707C49.5253 21.9761 45.808 19.3681 38.296 19.3681C31.608 19.3681 27.6187 22.1894 27.6187 26.9227C27.6187 32.0561 31.5867 33.4747 38.0053 34.1094C45.6853 34.8614 46.28 35.9841 46.28 37.4934C46.28 40.1147 44.176 41.2321 39.2347 41.2321C33.0293 41.2321 31.664 39.6747 31.2053 36.5867C31.152 36.2561 30.8693 36.0134 30.5307 36.0134H27.4987C27.1227 36.0134 26.8213 36.3121 26.8213 36.6881C26.8213 40.6401 28.9707 45.3494 39.2347 45.3494C46.6693 45.3521 50.9307 42.4267 50.9307 37.3147Z" fill="#689F63"/>
</g>
<defs>
<clipPath id="clip0">
<rect width="64" height="64" fill="white"/>
</clipPath>
</defs>
</svg>
