<svg width="64" height="64" viewBox="0 0 64 64" fill="none" xmlns="http://www.w3.org/2000/svg">
<rect width="64" height="64" rx="5" fill="url(#paint0_radial)"/>
<path d="M11.5474 38.1368C11.2686 37.1626 11.0521 36.1611 10.8979 35.1324C10.7437 34.1001 10.6666 33.056 10.6666 32C10.6666 29.0488 11.2242 26.2797 12.3392 23.6924C13.4543 21.104 14.9797 18.8497 16.9156 16.9297C18.8528 15.0086 21.1167 13.4767 23.7074 12.3342C26.2981 11.2225 29.0697 10.6666 32.0222 10.6666C34.9462 10.6666 37.7042 11.2237 40.2961 12.3377C42.8856 13.4779 45.1483 15.0086 47.0843 16.9297C49.0214 18.8497 50.5469 21.104 51.6607 23.6924C52.7758 26.2808 53.3333 29.05 53.3333 32C53.3333 33.0299 53.2633 34.0456 53.1233 35.0471C52.9834 36.0497 52.7746 37.024 52.497 37.9697C52.7461 38.0254 52.9478 38.0669 53.102 38.0942L53.3333 38.1368L50.9081 44.2328L50.5735 44.2115L49.6127 44.0231C48.6661 45.4145 47.5522 46.6808 46.2711 47.8222C45.0173 48.992 43.6383 49.9804 42.1342 50.7875C40.63 51.5934 39.0144 52.2192 37.2872 52.6648C35.5874 53.1105 33.8318 53.3333 32.0204 53.3333C30.1818 53.3333 28.3995 53.1105 26.6735 52.6648C24.9737 52.2204 23.3723 51.5875 21.8693 50.7662C20.364 49.9448 18.9702 48.9635 17.6879 47.8222C16.4068 46.6808 15.2929 45.4008 14.3463 43.9822C14.0118 44.0936 13.7544 44.1629 13.5741 44.1902L13.3018 44.2328L10.6684 38.2204L10.8784 38.2417L11.5474 38.1368V38.1368ZM51.118 32C51.118 29.357 50.6162 26.88 49.6127 24.5688C48.6103 22.2577 47.2456 20.24 45.5185 18.5155C43.7913 16.7899 41.7575 15.4263 39.4171 14.4248C37.1052 13.4222 34.6402 12.9208 32.0222 12.9208C29.3757 12.9208 26.8965 13.4222 24.5846 14.4248C22.2442 15.4263 20.2104 16.7893 18.4832 18.5137C16.7561 20.2417 15.3914 22.2601 14.389 24.5688C13.3854 26.88 12.8837 29.357 12.8837 32C12.8837 32.89 12.9465 33.7736 13.0723 34.6506C13.198 35.5277 13.386 36.3834 13.6363 37.2177C14.6944 36.6062 15.8925 35.4376 17.2306 33.712C18.5675 31.9863 19.6398 30.2607 20.4476 28.5351C20.8652 27.6723 21.4085 26.7259 22.0775 25.696C22.7181 24.666 23.5116 23.6989 24.4582 22.7946C25.406 21.8903 26.5063 21.146 27.7589 20.5617C29.0128 19.949 30.4338 19.6426 32.0222 19.6426C33.5821 19.6426 35.0168 19.9905 36.3264 20.6862C37.6348 21.3819 38.7694 22.1819 39.7303 23.0862C40.6911 23.9917 41.4645 24.8758 42.0505 25.7386C42.6626 26.6003 43.0523 27.1846 43.2196 27.4915C43.4153 27.8257 43.694 28.3828 44.0558 29.1626C44.4461 29.9128 44.8779 30.7194 45.3512 31.5822C45.8257 32.445 46.3132 33.2942 46.8138 34.1297C47.3156 34.9357 47.7889 35.5478 48.2337 35.9662C48.5409 36.272 48.8755 36.5363 49.2373 36.7591C49.5991 36.9819 49.9609 37.1768 50.3227 37.344C50.5741 36.4811 50.7699 35.6041 50.9098 34.7128C51.0486 33.8228 51.118 32.9185 51.118 32V32ZM32.0222 51.0791C33.6094 51.0791 35.1414 50.8983 36.6182 50.5368C38.1224 50.1457 39.5357 49.6029 40.8584 48.9084C42.1822 48.2127 43.401 47.3771 44.5149 46.4017C45.63 45.4287 46.6193 44.3443 47.4828 43.1484C46.3678 42.5629 45.079 41.5881 43.6163 40.224C42.1537 38.861 40.671 36.8711 39.168 34.2542C38.9996 33.9757 38.7066 33.4186 38.289 32.5831C37.8715 31.7487 37.3632 30.8865 36.7641 29.9964C36.1651 29.1051 35.5038 28.3117 34.7802 27.616C34.0566 26.9203 33.3045 26.5724 32.524 26.5724C31.7162 26.5724 30.8941 26.9481 30.0578 27.6995C29.2227 28.4225 28.4499 29.2438 27.7393 30.1635C27.0276 31.082 26.4214 31.9727 25.9209 32.8355C25.4191 33.6699 25.0988 34.2127 24.96 34.464C23.5674 36.9125 22.0983 38.8118 20.5526 40.1617C19.0058 41.5117 17.6475 42.493 16.4779 43.1057C17.3415 44.3028 18.3302 45.3878 19.4441 46.3608C20.5864 47.3635 21.8195 48.2127 23.1433 48.9084C24.466 49.6041 25.8657 50.1327 27.3425 50.4942C28.8467 50.8841 30.4066 51.0791 32.0222 51.0791V51.0791Z" fill="#E1DDDC"/>
<defs>
<radialGradient id="paint0_radial" cx="0" cy="0" r="1" gradientUnits="userSpaceOnUse" gradientTransform="translate(32 32) rotate(90) scale(32)">
<stop stop-color="#A259FF"/>
<stop offset="0.52812" stop-color="#412547"/>
</radialGradient>
</defs>
</svg>
