<svg width="64" height="64" viewBox="0 0 64 64" fill="none" xmlns="http://www.w3.org/2000/svg">
<g clip-path="url(#clip0)">
<path d="M37.9998 0.48L40.3998 1.01333L42.3465 1.70667L43.9198 2.50667L45.1198 3.36L46.0265 4.26667L46.6932 5.17333L47.1198 6.05333L47.3865 6.85333L47.4932 7.54667L47.5465 8.08L47.5198 8.42667V22.6667L47.3865 24.3467L47.0398 25.8133L46.4798 27.04L45.7865 28.0533L44.9865 28.88L44.1065 29.5467L43.1732 30.0533L42.2398 30.4267L41.3598 30.6933L40.5598 30.88L39.8665 30.9867L39.3065 31.04H23.3865L21.5465 31.1733L19.9732 31.5467L18.6398 32.1333L17.5465 32.8533L16.6665 33.7067L15.9465 34.64L15.4132 35.6L15.0132 36.5867L14.7465 37.52L14.5598 38.3733L14.4532 39.0933L14.3998 39.6533V47.8133H8.45318L7.89318 47.7333L7.14651 47.5467L6.29318 47.2267L5.35984 46.7467L4.39984 46.0533L3.43984 45.0933L2.50651 43.8667L1.65318 42.2933L0.90651 40.3467L0.34651 38L-0.0268229 35.2L-0.160156 31.92L-0.000156249 28.6667L0.42651 25.8933L1.06651 23.5733L1.91984 21.68L2.87984 20.16L3.94651 18.9867L5.06651 18.1067L6.18651 17.4667L7.25318 17.04L8.21318 16.7733L9.06651 16.64L9.70651 16.6133H10.1332L10.2932 16.64H32.0532V14.4267H16.4798L16.4532 7.09333L16.3998 6.10667L16.5332 5.2L16.8265 4.37333L17.2798 3.62667L17.9465 2.93333L18.7732 2.32L19.7865 1.78667L20.9598 1.30667L22.3198 0.906667L23.8665 0.586667L25.5732 0.32L27.4665 0.16L29.5198 0.0533333L31.7598 0L35.1465 0.133333L37.9998 0.48ZM21.1998 5.76L20.5865 6.64L20.3732 7.73333L20.5865 8.82667L21.1998 9.73333L22.0798 10.32L23.1732 10.56L24.2665 10.32L25.1465 9.73333L25.7598 8.82667L25.9732 7.73333L25.7598 6.64L25.1465 5.76L24.2665 5.17333L23.1732 4.93333L22.0798 5.17333L21.1998 5.76ZM56.1065 16.2933L56.8532 16.4533L57.7065 16.7733L58.6398 17.2533L59.5998 17.9733L60.5598 18.9067L61.4932 20.16L62.3465 21.7333L63.0932 23.68L63.6532 26.0267L64.0265 28.8L64.1598 32.08L63.9998 35.36L63.5732 38.1333L62.9332 40.4267L62.0798 42.32L61.1198 43.84L60.0532 45.04L58.9332 45.92L57.8132 46.56L56.7465 46.9867L55.7865 47.2267L54.9332 47.36L54.2932 47.4133L53.8665 47.3867H31.9465V49.5733H47.5198L47.5465 56.9333L47.5998 57.8933L47.4665 58.8L47.1732 59.6267L46.7198 60.4L46.0532 61.0667L45.2265 61.7067L44.2132 62.24L43.0398 62.6933L41.6798 63.0933L40.1332 63.44L38.4265 63.68L36.5332 63.8667L34.4798 63.9733L32.2398 64L28.8532 63.8933L25.9998 63.52L23.5998 62.9867L21.6532 62.32L20.0798 61.52L18.8798 60.64L17.9732 59.7333L17.3065 58.8267L16.8798 57.9467L16.6132 57.1467L16.5065 56.48L16.4532 55.9467L16.4798 55.6V41.36L16.6132 39.6533L16.9598 38.2133L17.5198 36.9867L18.2132 35.9733L19.0132 35.12L19.8932 34.48L20.8265 33.9467L21.7598 33.5733L22.6398 33.3067L23.4398 33.1467L24.1332 33.04L24.6932 32.9867L25.0398 32.96H40.6132L42.4532 32.8267L44.0265 32.4533L45.3598 31.8933L46.4532 31.1467L47.3332 30.2933L48.0532 29.36L48.5865 28.4L48.9865 27.44L49.2532 26.5067L49.4398 25.6533L49.5465 24.9067L49.5998 24.3467V16.1867H55.1732L55.5465 16.2133L56.1065 16.2933ZM38.8532 54.2933L38.2398 55.1733L38.0265 56.2667L38.2398 57.36L38.8532 58.24L39.7332 58.8533L40.8265 59.0667L41.9198 58.8533L42.7998 58.24L43.4132 57.36L43.6265 56.2667L43.4132 55.1733L42.7998 54.2933L41.9198 53.68L40.8265 53.4667L39.7332 53.68L38.8532 54.2933Z" fill="url(#paint0_linear)"/>
</g>
<defs>
<linearGradient id="paint0_linear" x1="-9.98824e-07" y1="5.6669e-07" x2="64" y2="64" gradientUnits="userSpaceOnUse">
<stop offset="0.390625" stop-color="#5484AD"/>
<stop offset="0.625" stop-color="#FBDA6F"/>
</linearGradient>
<clipPath id="clip0">
<rect width="64" height="64" fill="white"/>
</clipPath>
</defs>
</svg>
