<svg width="64" height="64" viewBox="0 0 64 64" fill="none" xmlns="http://www.w3.org/2000/svg">
<path d="M37.9467 32.0106C37.9467 33.5915 37.3188 35.1077 36.2012 36.2259C35.0835 37.344 33.5676 37.9725 31.9867 37.9732C30.4053 37.9732 28.8886 37.345 27.7704 36.2268C26.6522 35.1086 26.024 33.592 26.024 32.0106C26.024 30.4296 26.6518 28.9134 27.7695 27.7953C28.8871 26.6771 30.4031 26.0486 31.984 26.0479C33.5654 26.0479 35.082 26.6761 36.2002 27.7943C37.3185 28.9125 37.9467 30.4292 37.9467 32.0106V32.0106ZM45.008 3.50391C41.4187 3.50391 36.7227 6.06391 31.9733 10.4959C27.2267 6.08791 22.528 3.55724 18.9413 3.55724C17.848 3.55724 16.8533 3.80524 15.992 4.29857C12.3253 6.41324 11.504 13.0026 13.3973 21.2719C5.28 23.7786 0 27.7866 0 32.0106C0 36.2506 5.30667 40.2692 13.448 42.7572C11.5707 51.0586 12.408 57.6586 16.0827 59.7706C16.936 60.2692 17.9227 60.5039 19.0213 60.5039C22.608 60.5039 27.3067 57.9439 32.056 53.5066C36.8027 57.9172 41.5013 60.4479 45.088 60.4479C46.1813 60.4479 47.176 60.2079 48.0373 59.7146C51.7013 57.6026 52.5253 51.0132 50.632 42.7412C58.72 40.2559 64 36.2399 64 32.0106C64 27.7706 58.6933 23.7519 50.552 21.2586C52.4293 12.9652 51.592 6.35991 47.9173 4.24524C47.0693 3.75457 46.0827 3.50657 45.0053 3.50391H45.008ZM44.9947 6.41057V6.42657C45.5947 6.42657 46.0773 6.54391 46.4827 6.76524C48.2587 7.78391 49.0293 11.6586 48.4293 16.6426C48.2853 17.8692 48.0507 19.1626 47.7627 20.4826C45.2027 19.8532 42.4133 19.3706 39.4773 19.0586C37.7173 16.6452 35.8907 14.4532 34.0507 12.5332C38.296 8.58657 42.2827 6.42124 44.9973 6.41324L44.9947 6.41057ZM18.9413 6.46391C21.64 6.46391 25.6453 8.61857 29.9013 12.5439C28.072 14.4639 26.248 16.6426 24.5147 19.0559C21.5627 19.3679 18.7707 19.8506 16.2133 20.4906C15.9147 19.1839 15.6933 17.9199 15.536 16.7039C14.9227 11.7226 15.68 7.85057 17.44 6.81857C17.9467 6.57857 18.5067 6.47991 18.9413 6.46657V6.46391ZM31.96 14.5972C33.1733 15.8452 34.3867 17.2426 35.5867 18.7679C34.4133 18.7146 33.2133 18.6772 32 18.6772C30.7733 18.6772 29.56 18.7039 28.3733 18.7679C29.5467 17.2426 30.76 15.8452 31.96 14.5946V14.5972ZM32 21.5999C33.9733 21.5999 35.9387 21.6906 37.872 21.8479C38.9547 23.3999 40.0107 25.0559 41.0267 26.8079C42.0187 28.5146 42.92 30.2479 43.7413 31.9972C42.92 33.7439 42.0187 35.4906 41.04 37.1972C40.0267 38.9572 38.9787 40.6319 37.8933 42.1839C35.952 42.3519 33.984 42.4452 32 42.4452C30.0267 42.4452 28.0613 42.3519 26.128 42.1972C25.0453 40.6452 23.9893 38.9866 22.9733 37.2372C21.9813 35.5306 21.08 33.7972 20.2587 32.0479C21.0667 30.2959 21.9813 28.5466 22.96 26.8372C23.9733 25.0772 25.0213 23.4079 26.1067 21.8559C28.048 21.6852 30.016 21.5946 32 21.5946V21.5999ZM22.3067 22.2772C21.6667 23.2826 21.0267 24.3119 20.4293 25.3706C19.8293 26.4106 19.2693 27.4559 18.736 28.5012C18.0293 26.7519 17.4293 25.0079 16.9333 23.3092C18.64 22.9092 20.44 22.5546 22.3067 22.2799V22.2772ZM41.6667 22.2772C43.52 22.5519 45.3067 22.8906 47.016 23.3092C46.536 24.9946 45.936 26.7279 45.256 28.4639C44.7227 27.4239 44.1627 26.3759 43.5493 25.3332C42.9493 24.2879 42.3093 23.2692 41.6693 22.2772H41.6667ZM49.8347 24.0772C51.1253 24.4772 52.352 24.9226 53.5013 25.4052C58.12 27.3786 61.1067 29.9599 61.1067 32.0079C61.0933 34.0559 58.1067 36.6479 53.488 38.6079C52.368 39.0879 51.1413 39.5199 49.8747 39.9226C49.128 37.3679 48.152 34.7066 46.9413 31.9759C48.1413 29.2639 49.1013 26.6159 49.8347 24.0719V24.0772ZM14.1147 24.0879C14.856 26.6479 15.8347 29.3066 17.048 32.0346C15.848 34.7466 14.8827 37.3946 14.152 39.9386C12.8613 39.5386 11.6347 39.0906 10.4987 38.6052C5.88 36.6399 2.89333 34.0559 2.89333 32.0079C2.89333 29.9599 5.88 27.3626 10.4987 25.4052C11.6187 24.9252 12.8453 24.4932 14.1147 24.0879V24.0879ZM45.256 35.5012C45.9627 37.2532 46.5627 38.9999 47.0587 40.6959C45.352 41.1146 43.5493 41.4692 41.6827 41.7359C42.3227 40.7359 42.9627 39.7039 43.5627 38.6479C44.1627 37.6079 44.7227 36.5466 45.2587 35.5012H45.256ZM18.736 35.5546C19.2693 36.5999 19.8293 37.6426 20.4427 38.6879C21.056 39.7279 21.6827 40.7466 22.3227 41.7359C20.4693 41.4639 18.6827 41.1226 16.9733 40.7066C17.4533 39.0266 18.056 37.2879 18.7333 35.5519L18.736 35.5546ZM47.7867 43.5199C48.0853 44.8346 48.32 46.1012 48.464 47.3146C49.0773 52.2959 48.32 56.1679 46.56 57.2026C46.168 57.4426 45.6587 57.5439 45.0587 57.5439C42.36 57.5439 38.3547 55.3919 34.0987 51.4639C35.928 49.5439 37.752 47.3679 39.4853 44.9572C42.4373 44.6426 45.2293 44.1572 47.7867 43.5172V43.5199ZM16.24 43.5466C18.8 44.1706 21.5893 44.6532 24.5253 44.9652C26.2853 47.3786 28.112 49.5706 29.952 51.4879C25.6987 55.4426 21.7067 57.6079 18.992 57.6079C18.4053 57.5946 17.9093 57.4746 17.5173 57.2559C15.7413 56.2426 14.9707 52.3652 15.5707 47.3812C15.7147 46.1546 15.9493 44.8639 16.2373 43.5466H16.24ZM28.4 45.2532C29.5733 45.3066 30.7733 45.3439 31.9867 45.3439C33.2133 45.3439 34.4267 45.3172 35.6133 45.2532C34.44 46.7786 33.2267 48.1732 32.0267 49.4266C30.8133 48.1732 29.6 46.7786 28.4 45.2532Z" fill="#03D8FE"/>
</svg>
