<svg width="64" height="64" viewBox="0 0 64 64" fill="none" xmlns="http://www.w3.org/2000/svg">
<g clip-path="url(#clip0)">
<path d="M27.6104 56.3332C25.2648 56.9426 22.7886 56.8176 20.5163 55.9749C18.2439 55.1323 16.2849 53.6126 14.9038 51.6212C14.0555 50.4344 13.4528 49.0903 13.1309 47.6676C12.809 46.2448 12.7744 44.7721 13.0291 43.3358C13.116 42.8641 13.2354 42.399 13.3864 41.9438L13.6664 41.0878L14.4318 41.6478C16.1951 42.9431 18.1665 43.9279 20.2611 44.5598L20.8158 44.7278L20.7624 45.2825C20.6959 46.0683 20.9093 46.8523 21.3651 47.4958C21.7807 48.096 22.3705 48.5542 23.0549 48.8084C23.7393 49.0625 24.4851 49.1005 25.1918 48.9172C25.5153 48.8312 25.8237 48.6963 26.1064 48.5172L41.0131 39.0185C41.3772 38.7885 41.6895 38.4853 41.93 38.1281C42.1706 37.771 42.3342 37.3677 42.4104 36.9438C42.4872 36.5108 42.477 36.0669 42.3804 35.6379C42.2838 35.2089 42.1027 34.8034 41.8478 34.4452C41.4319 33.8453 40.8421 33.3873 40.1578 33.1332C39.4735 32.879 38.7278 32.8409 38.0211 33.0238C37.6976 33.1097 37.3891 33.2446 37.1064 33.4238L31.4184 37.0505C30.4833 37.6457 29.4626 38.0945 28.3918 38.3812C26.0464 38.9909 23.5704 38.8663 21.2981 38.0241C19.0258 37.182 17.0666 35.6628 15.6851 33.6718C14.8369 32.4846 14.2343 31.14 13.9128 29.7167C13.5914 28.2935 13.5575 26.8204 13.8131 25.3838C14.0659 23.9762 14.6096 22.6367 15.4094 21.4511C16.2093 20.2655 17.2478 19.2599 18.4584 18.4985L33.3624 8.99717C34.2975 8.40172 35.3182 7.95296 36.3891 7.6665C38.7348 7.05703 41.211 7.18207 43.4833 8.02471C45.7556 8.86736 47.7146 10.387 49.0958 12.3785C49.944 13.5652 50.5468 14.9094 50.8687 16.3321C51.1906 17.7548 51.2252 19.2275 50.9705 20.6638C50.8832 21.1354 50.7638 21.6005 50.6131 22.0558L50.3331 22.9118L49.5705 22.3518C47.8067 21.0551 45.8343 20.0693 43.7385 19.4372L43.1838 19.2692L43.2371 18.7172C43.3039 17.9305 43.0904 17.1456 42.6344 16.5012C42.2185 15.9015 41.6285 15.4438 40.9442 15.1901C40.2599 14.9364 39.5141 14.8989 38.8078 15.0825C38.4843 15.1684 38.1758 15.3033 37.8931 15.4825L22.9864 24.9812C22.6221 25.2109 22.3097 25.514 22.0691 25.8712C21.8285 26.2285 21.6651 26.6319 21.5891 27.0558C21.512 27.4888 21.5221 27.9328 21.6187 28.3619C21.7153 28.7909 21.8965 29.1964 22.1518 29.5545C22.5676 30.1544 23.1575 30.6123 23.8418 30.8665C24.526 31.1206 25.2718 31.1588 25.9784 30.9758C26.303 30.8892 26.6123 30.7534 26.8958 30.5732L32.5811 26.9465C33.5162 26.3518 34.537 25.9039 35.6078 25.6185C37.9532 25.0088 40.4292 25.1334 42.7015 25.9755C44.9738 26.8177 46.9329 28.3368 48.3144 30.3278C49.1627 31.515 49.7653 32.8597 50.0867 34.2829C50.4082 35.7062 50.4421 37.1793 50.1864 38.6158C49.9337 40.0239 49.3901 41.3637 48.5902 42.5497C47.7903 43.7358 46.7519 44.7419 45.5411 45.5038L30.6371 55.0025C29.7021 55.5979 28.6813 56.0467 27.6104 56.3332ZM55.2318 8.4665C49.2904 -0.0401675 37.5518 -2.56017 29.0664 2.84783L14.1598 12.3465C12.1467 13.6134 10.4201 15.2864 9.09036 17.2586C7.7606 19.2307 6.85693 21.4586 6.43711 23.7998C5.72585 27.7443 6.35085 31.8133 8.21311 35.3625C6.93668 37.2973 6.06581 39.4709 5.65311 41.7518C5.22899 44.1402 5.28602 46.5892 5.82086 48.9553C6.35571 51.3213 7.3576 53.5568 8.76778 55.5305C14.7118 64.0372 26.4478 66.5572 34.9331 61.1518L49.8398 51.6532C51.8531 50.3865 53.5798 48.7135 54.9096 46.7414C56.2394 44.7692 57.1429 42.5412 57.5625 40.1998C58.2739 36.2557 57.6499 32.1868 55.7891 28.6372C57.0637 26.7019 57.9328 24.5284 58.3438 22.2478C58.769 19.8592 58.7127 17.4097 58.1783 15.0432C57.6439 12.6766 56.6421 10.4406 55.2318 8.4665V8.4665Z" fill="#FF3E00"/>
</g>
<defs>
<clipPath id="clip0">
<rect width="64" height="64" fill="white"/>
</clipPath>
</defs>
</svg>
