<svg width="64" height="64" viewBox="0 0 64 64" fill="none" xmlns="http://www.w3.org/2000/svg">
<rect x="10.6667" y="13.3334" width="40" height="34.6667" fill="#FF9A00"/>
<path d="M28.08 28.6134C27.8133 27.7867 27.5733 26.9867 27.3067 26.16C27.04 25.3334 26.8 24.56 26.5867 23.7867C26.3733 23.04 26.1867 22.3467 26 21.7067H25.9467C25.7067 22.8534 25.4133 24 25.04 25.1467C24.64 26.4267 24.24 27.76 23.8133 29.0934C23.44 30.4534 23.04 31.7067 22.64 32.8267H29.4133C29.2533 32.264 29.04 31.6 28.8 30.904C28.56 30.1867 28.32 29.4134 28.08 28.6134V28.6134ZM52.6667 0.800049H11.3333C5.06667 0.800049 0 5.86672 0 12.1334V51.8667C0 58.1334 5.06667 63.2 11.3333 63.2H52.6667C58.9333 63.2 64 58.1334 64 51.8667V12.1334C64 5.86672 58.9333 0.800049 52.6667 0.800049ZM39.2 44.88H33.624C33.44 44.9067 33.2533 44.7734 33.2 44.5867L31.0133 38.24H21.0933L19.0667 44.5067C19.0133 44.7467 18.8 44.9067 18.56 44.8827H13.5467C13.2533 44.8827 13.1733 44.72 13.2533 44.4027L21.84 19.68C21.92 19.4134 22 19.12 22.1067 18.8C22.2133 18.24 22.2667 17.6534 22.2667 17.0667C22.24 16.9334 22.3467 16.8 22.48 16.7734H29.3867C29.6 16.7734 29.7067 16.8534 29.7333 16.9867L39.4667 44.4534C39.5467 44.744 39.4667 44.88 39.2 44.88V44.88ZM48.2667 44.48C48.2667 44.7734 48.1627 44.9067 47.9227 44.9067H42.6933C42.4267 44.9067 42.2933 44.744 42.2933 44.48V23.9467C42.2933 23.68 42.4027 23.5734 42.6427 23.5734H47.9227C48.1627 23.5734 48.2667 23.7067 48.2667 23.9467V44.48V44.48ZM47.7093 20.4C47.0933 21.04 46.1867 21.3867 45.28 21.3334C44.4 21.36 43.5467 21.0134 42.904 20.4C42.2907 19.7334 41.9707 18.8534 41.9973 17.9467C41.9707 17.04 42.3173 16.1867 42.9547 15.5734C43.6 14.96 44.4533 14.64 45.3333 14.64C46.376 14.64 47.1707 14.96 47.76 15.5734C48.3467 16.2134 48.6667 17.0667 48.64 17.9467C48.6667 18.8534 48.3467 19.7334 47.7093 20.4V20.4Z" fill="#330000"/>
</svg>
