<svg width="64" height="64" viewBox="0 0 64 64" fill="none" xmlns="http://www.w3.org/2000/svg">
<rect x="10.6666" y="13.3334" width="42.6667" height="34.6667" fill="#31A8FF"/>
<path d="M26.2667 22.4534C25.28 22.0534 24.2133 21.8934 23.12 21.92C22.4267 21.92 21.8133 21.92 21.3067 21.9467C20.7733 21.92 20.4 21.9467 20.2133 21.9734V30.9334C20.5867 30.96 20.9333 30.9867 21.2533 30.9867H22.6667C23.7067 30.9867 24.7467 30.8267 25.7333 30.5067C26.5867 30.2667 27.3333 29.76 27.92 29.0934C28.48 28.4267 28.7467 27.52 28.7467 26.3467C28.7733 25.52 28.56 24.6934 28.1333 23.9734C27.68 23.28 27.04 22.7467 26.2667 22.4534V22.4534ZM52.6667 0.800049H11.3333C5.06667 0.800049 0 5.86672 0 12.1334V51.864C0 58.1307 5.06667 63.1974 11.3333 63.1974H52.6667C58.9333 63.1974 64 58.1307 64 51.864V12.1334C64 5.86672 58.9333 0.800049 52.6667 0.800049ZM32.9573 31.8667C31.8933 33.36 30.4 34.48 28.6667 35.12C26.8533 35.7867 24.8533 36.0267 22.6667 36.0267C22.0267 36.0267 21.6 36.0267 21.3333 36C21.0667 35.9734 20.6933 35.9734 20.1867 35.9734V44.5307C20.2133 44.7174 20.08 44.88 19.8933 44.9067H14.72C14.5067 44.9067 14.4 44.7974 14.4 44.5574V17.12C14.4 16.9334 14.48 16.8267 14.6667 16.8267C15.12 16.8267 15.5467 16.8267 16.16 16.8C16.8 16.7734 17.4667 16.7734 18.1867 16.7467C18.9067 16.72 19.68 16.72 20.5067 16.6934C21.3333 16.6667 22.1333 16.6667 22.9333 16.6667C25.12 16.6667 26.9333 16.9334 28.4267 17.4934C29.76 17.9467 30.9867 18.6934 32 19.68C32.8533 20.5334 33.52 21.5734 33.9467 22.72C34.344 23.84 34.5573 24.9867 34.5573 26.1867C34.56 28.48 34.0267 30.3734 32.9573 31.8667V31.8667ZM51.8667 42.24C51.12 43.3067 50.0773 44.1307 48.88 44.6161C47.5733 45.1734 45.9733 45.464 44.0507 45.464C42.8267 45.464 41.624 45.36 40.4267 45.12C39.4933 44.9574 38.56 44.6667 37.7067 44.2667C37.52 44.1627 37.384 43.976 37.4107 43.7627V39.1227C37.4107 39.0454 37.44 38.936 37.52 38.8827C37.5973 38.8294 37.68 38.856 37.76 38.9094C38.8 39.5227 39.8933 39.952 41.0667 40.216C42.0773 40.4827 43.144 40.616 44.2133 40.616C45.2267 40.616 45.9467 40.48 46.4267 40.24C46.8533 40.0534 47.1467 39.6 47.1467 39.12C47.1467 38.744 46.9333 38.4 46.5067 38.0534C46.08 37.7094 45.2027 37.3094 43.896 36.7974C42.536 36.3174 41.2853 35.6774 40.1093 34.88C39.2827 34.2907 38.592 33.52 38.08 32.6134C37.656 31.76 37.4427 30.8267 37.4693 29.8907C37.4693 28.744 37.7893 27.6507 38.3787 26.664C39.0453 25.5974 40.0293 24.744 41.176 24.2107C42.4267 23.5734 44 23.28 45.8933 23.28C46.9867 23.28 48.1067 23.36 49.2 23.52C50 23.6267 50.7733 23.84 51.4933 24.1334C51.5973 24.16 51.7067 24.2667 51.76 24.3734C51.7867 24.48 51.8133 24.5867 51.8133 24.6934V29.04C51.8133 29.1467 51.76 29.2534 51.68 29.3067C51.44 29.36 51.3067 29.36 51.2 29.3067C50.4 28.88 49.5467 28.5867 48.64 28.4C47.6533 28.1867 46.6667 28.0534 45.6533 28.0534C45.12 28.0267 44.56 28.1067 44.0507 28.24C43.7067 28.32 43.4107 28.5067 43.224 28.7734C43.0907 28.9867 43.0107 29.2534 43.0107 29.4934C43.0107 29.7334 43.1173 29.9734 43.28 30.1867C43.52 30.48 43.8373 30.72 44.1867 30.9067C44.7973 31.2267 45.44 31.52 46.0773 31.7867C47.52 32.2667 48.9067 32.9334 50.1867 33.7334C51.0667 34.2907 51.7867 35.04 52.2907 35.9467C52.7173 36.7947 52.9307 37.7334 52.904 38.6907C52.9333 39.9467 52.56 41.1974 51.8667 42.24V42.24Z" fill="#001E36"/>
</svg>
