<svg width="64" height="64" viewBox="0 0 64 64" fill="none" xmlns="http://www.w3.org/2000/svg">
<g clip-path="url(#clip0)">
<rect x="10.6666" y="13.3334" width="45.3333" height="34.6667" fill="#9999FF"/>
<path d="M27.0667 22.4534C26.0656 22.061 24.9944 21.8794 23.92 21.92C22.9508 21.8998 21.9812 21.9176 21.0133 21.9734V30.9334L22.0533 30.9867H23.4667C24.5067 30.9867 25.5467 30.8267 26.5333 30.5067C27.3867 30.2667 28.1333 29.76 28.72 29.0934C29.28 28.4267 29.5467 27.52 29.5467 26.3467C29.6069 25.5174 29.3981 24.6907 28.9514 23.9894C28.5046 23.288 27.8437 22.7494 27.0667 22.4534ZM52.6667 0.800049H11.3333C8.32755 0.800049 5.44487 1.99409 3.31946 4.11951C1.19404 6.24492 0 9.12759 0 12.1334L0 51.8667C0 58.1334 5.06667 63.2 11.3333 63.2H52.6667C58.9333 63.2 64 58.1334 64 51.8667V12.1334C64 5.86672 58.9333 0.800049 52.6667 0.800049ZM33.76 31.8667C32.6933 33.36 31.2 34.48 29.4667 35.12C27.6533 35.7867 25.6533 36.0267 23.4667 36.0267L22.1333 36L20.9867 35.9734V44.5334C20.9942 44.5775 20.9925 44.6227 20.9815 44.666C20.9705 44.7094 20.9505 44.75 20.9229 44.7852C20.8953 44.8204 20.8605 44.8494 20.821 44.8703C20.7815 44.8912 20.738 44.9036 20.6933 44.9067H15.52C15.3067 44.9067 15.2 44.8 15.2 44.56V17.12C15.2 16.9334 15.28 16.8267 15.4667 16.8267L16.96 16.8L18.9867 16.7467L21.3067 16.6934L23.7333 16.6667C25.92 16.6667 27.7333 16.9334 29.2267 17.4934C30.56 17.9467 31.7867 18.6934 32.8 19.68C33.6533 20.5334 34.32 21.5734 34.7467 22.72C35.1467 23.84 35.36 24.9867 35.36 26.1867C35.36 28.48 34.8267 30.3734 33.76 31.8667V31.8667ZM51.9467 23.4667V28.6667C51.9467 28.88 51.8133 28.96 51.52 28.96C49.7606 28.8961 48.0097 29.2335 46.4 29.9467C45.8933 30.1867 45.4133 30.5067 45.04 30.9334V44.5334C45.04 44.8001 44.9333 44.9067 44.6933 44.9067H39.44C39.3909 44.9142 39.3408 44.9119 39.2926 44.8998C39.2445 44.8877 39.1992 44.8662 39.1594 44.8364C39.1197 44.8066 39.0863 44.7691 39.0612 44.7263C39.0361 44.6834 39.0199 44.636 39.0133 44.5867V29.7067L38.9867 27.7067L38.9333 25.6267C38.9333 25.0134 38.88 24.4267 38.8267 23.8134C38.8176 23.7502 38.8314 23.6859 38.8656 23.6321C38.8999 23.5783 38.9523 23.5385 39.0133 23.52H43.76C44.0267 23.52 44.24 23.7067 44.2933 23.9467C44.5343 24.7418 44.6513 25.5693 44.64 26.4C45.44 25.4667 46.4267 24.6934 47.52 24.1067C48.7596 23.4182 50.1554 23.06 51.5733 23.0667C51.76 23.04 51.92 23.1734 51.9467 23.36V23.4667V23.4667Z" fill="#00005B"/>
</g>
<defs>
<clipPath id="clip0">
<rect width="64" height="64" fill="white"/>
</clipPath>
</defs>
</svg>
