<svg width="32" height="32" viewBox="0 0 32 32" fill="none" xmlns="http://www.w3.org/2000/svg">
<g clip-path="url(#clip0)">
<path d="M32 7.27596V25.8213C32 27.0266 31.024 28.0026 29.8187 28.0026H24.7267V15.64L16 22.1866L7.27333 15.64V28.004H2.18133C1.89476 28.004 1.611 27.9475 1.34627 27.8378C1.08153 27.7281 0.841 27.5673 0.638427 27.3646C0.435854 27.1619 0.275206 26.9213 0.165662 26.6565C0.0561178 26.3917 -0.000174757 26.1079 4.07535e-07 25.8213V7.27596C4.07535e-07 4.57862 3.07867 3.03862 5.236 4.65729L7.27333 6.18662L16 12.7306L24.7267 6.18396L26.764 4.65729C28.92 3.03996 32 4.57862 32 7.27596Z" fill="#DD4E42"/>
</g>
<defs>
<clipPath id="clip0">
<rect width="32" height="32" fill="white"/>
</clipPath>
</defs>
</svg>
