<svg width="64" height="64" viewBox="0 0 64 64" fill="none" xmlns="http://www.w3.org/2000/svg">
<path d="M23.6025 49.4933C23.6025 49.4933 21.1572 50.9173 25.3439 51.3973C30.4159 51.9787 33.0079 51.896 38.5945 50.8347C38.5945 50.8347 40.0665 51.7573 42.1172 52.5573C29.5865 57.9253 13.7625 52.2427 23.6025 49.4933ZM22.0692 42.488C22.0692 42.488 19.3279 44.5173 23.5145 44.952C28.9332 45.5093 33.2105 45.5573 40.6159 44.1307C40.6159 44.1307 41.6399 45.168 43.2479 45.736C28.1039 50.1653 11.2292 46.0827 22.0692 42.488ZM34.9759 30.6C38.0639 34.1547 34.1652 37.3547 34.1652 37.3547C34.1652 37.3547 42.0025 33.3067 38.4025 28.24C35.0399 23.5147 32.4612 21.168 46.4212 13.072C46.4212 13.072 24.5119 18.5413 34.9759 30.6ZM51.5465 54.6773C51.5465 54.6773 53.3572 56.168 49.5545 57.32C42.3225 59.512 19.4532 60.1707 13.1039 57.408C10.8212 56.4133 15.1039 55.0347 16.4479 54.7467C17.8532 54.4427 18.6559 54.4987 18.6559 54.4987C16.1145 52.7093 2.23986 58.0107 11.6079 59.5307C37.1545 63.672 58.1732 57.664 51.5465 54.6773ZM24.7785 35.2267C24.7785 35.2267 13.1465 37.9893 20.6612 38.992C23.8319 39.416 30.1572 39.32 36.0479 38.8267C40.8639 38.4213 45.6959 37.5547 45.6959 37.5547C45.6959 37.5547 43.9972 38.28 42.7679 39.12C30.9572 42.2267 8.13852 40.7813 14.7092 37.6053C20.2612 34.9227 24.7785 35.2267 24.7785 35.2267ZM45.6425 46.8907C57.6505 40.6507 52.0985 34.6533 48.2239 35.464C47.2772 35.6613 46.8505 35.832 46.8505 35.832C46.8505 35.832 47.2025 35.28 47.8772 35.04C55.5439 32.344 61.4399 42.9893 45.4025 47.2053C45.4025 47.2053 45.5892 47.04 45.6425 46.8907ZM38.4025 0C38.4025 0 45.0532 6.65067 32.0959 16.88C21.7065 25.0853 29.7279 29.7653 32.0932 35.1093C26.0292 29.6347 21.5785 24.8213 24.5625 20.3387C28.9465 13.7547 41.0879 10.5653 38.4025 0ZM25.9572 63.7973C37.4825 64.536 55.1812 63.3893 55.5999 57.936C55.5999 57.936 54.7945 60.0027 46.0745 61.6453C36.2399 63.496 24.1039 63.28 16.9092 62.0933C16.9092 62.0933 18.3839 63.312 25.9572 63.7973Z" fill="#0E8AC8"/>
<path fill-rule="evenodd" clip-rule="evenodd" d="M34.2778 37.2556C34.8955 36.6904 37.7451 33.7879 34.9758 30.6001C24.5118 18.5414 46.4212 13.072 46.4212 13.072C33.0613 20.82 34.8487 23.3023 37.9745 27.6432C38.1149 27.8382 38.258 28.0369 38.4025 28.2401C41.691 32.8684 35.4357 36.6466 34.3287 37.2658L34.2778 37.2556ZM38.8385 0.544833C40.0798 2.32717 42.884 8.36324 32.0958 16.88C24.0616 23.2254 27.0373 27.4625 29.8931 31.5288C30.7302 32.7208 31.557 33.898 32.0932 35.1094C26.0292 29.6347 21.5785 24.8214 24.5625 20.3387C26.0214 18.1477 28.3393 16.3327 30.684 14.4966C35.2674 10.9075 39.9533 7.23823 38.5249 0.523926L38.8385 0.544833Z" fill="#EB2124"/>
</svg>
