<svg width="64" height="64" viewBox="0 0 64 64" fill="none" xmlns="http://www.w3.org/2000/svg">
<path d="M30.6666 2.66663L25.3333 5.33329V10.6666L21.3333 12L16 9.33329L10.6666 10.6666L9.33329 17.3333L12 22.6666L10.6666 25.3333H5.33329L2.66663 30.6666L3.99996 37.3333L9.33329 38.6666L10.6666 42.6666L9.33329 52L17.3333 56L22.6666 52L25.3333 54.6666L28 60H36L38.6666 56L37.3333 50.6666V45.3333L42.6666 53.3333L49.3333 56L53.3333 53.3333L54.6666 48L53.3333 44L49.3333 41.3333L52 40L57.3333 38.6666L60 36L61.3333 30.6666L58.6666 25.3333L50.6666 24L53.3333 21.3333L54.6666 16L53.3333 12L49.3333 9.33329H45.3333L40 12L38.6666 7.99996L36 2.66663H30.6666Z" fill="#EDA922"/>
<path d="M32 0C28.008 0 24.6693 2.57333 23.3387 5.78667C22.8646 6.98689 22.6484 8.27342 22.704 9.56267C21.8327 8.61173 20.7716 7.85409 19.5893 7.33867C18.3525 6.83527 17.0223 6.6025 15.688 6.656C13.3154 6.73021 11.0594 7.70237 9.376 9.376C6.54933 12.1973 6.008 16.376 7.33867 19.5893C7.816 20.7413 8.592 21.776 9.52533 22.6667C8.24616 22.6313 6.97344 22.86 5.78667 23.3387C2.57333 24.6693 0 28.0053 0 32C0 35.992 2.57333 39.3307 5.78667 40.6613C6.952 41.144 8.25067 41.328 9.55733 41.2907C8.60533 42.192 7.824 43.2427 7.33867 44.4107C6.008 47.624 6.552 51.8027 9.376 54.624C12.1973 57.4507 16.376 57.992 19.5893 56.6613C20.7547 56.1787 21.8027 55.392 22.704 54.4427C22.6667 55.7493 22.856 57.048 23.3387 58.2133C24.6693 61.4267 28.0053 64 32 64C35.992 64 39.3307 61.4267 40.6613 58.2133C41.1354 57.0131 41.3516 55.7266 41.296 54.4373C42.1973 55.3867 43.2427 56.1787 44.4107 56.6613C47.624 57.992 51.8027 57.448 54.624 54.624C57.4507 51.8027 57.992 47.624 56.6613 44.4107C56.1459 43.2284 55.3883 42.1673 54.4373 41.296C55.7266 41.3516 57.0131 41.1354 58.2133 40.6613C61.4267 39.3307 64 35.9947 64 32C64 28.008 61.4267 24.6693 58.2133 23.3387C57.0143 22.8676 55.7297 22.6532 54.4427 22.7093C55.3947 21.808 56.176 20.7573 56.6613 19.5893C57.992 16.376 57.448 12.1973 54.624 9.376C52.9406 7.70237 50.6846 6.73021 48.312 6.656C46.9777 6.6025 45.6475 6.83527 44.4107 7.33867C43.2453 7.82133 42.1973 8.60533 41.296 9.55733C41.3509 8.26987 41.1346 6.98524 40.6613 5.78667C39.3307 2.57333 35.9947 0 32 0ZM31.8907 4.30133C32.9029 4.27918 33.8986 4.56046 34.7495 5.10899C35.6005 5.65751 36.2679 6.44817 36.6657 7.37919C37.0635 8.31021 37.1736 9.33899 36.9818 10.3331C36.79 11.3272 36.305 12.2412 35.5893 12.9573V23.3387L42.928 16C42.928 14.9969 43.2255 14.0162 43.7828 13.1821C44.3401 12.3481 45.1322 11.698 46.059 11.3141C46.9858 10.9302 48.0056 10.8298 48.9895 11.0255C49.9734 11.2212 50.8771 11.7042 51.5864 12.4136C52.2958 13.1229 52.7788 14.0266 52.9745 15.0105C53.1702 15.9944 53.0698 17.0142 52.6859 17.941C52.302 18.8678 51.6519 19.6599 50.8179 20.2172C49.9838 20.7745 49.0031 21.072 48 21.072L40.6613 28.4107H51.0427C51.7523 27.7022 52.6561 27.2199 53.6397 27.0249C54.6234 26.8298 55.6428 26.9307 56.5691 27.3149C57.4954 27.699 58.287 28.3491 58.844 29.183C59.401 30.0169 59.6982 30.9972 59.6982 32C59.6982 33.0028 59.401 33.9831 58.844 34.817C58.287 35.6509 57.4954 36.301 56.5691 36.6851C55.6428 37.0693 54.6234 37.1702 53.6397 36.9751C52.6561 36.7801 51.7523 36.2978 51.0427 35.5893H40.6613L48 42.928C49.0031 42.928 49.9838 43.2255 50.8179 43.7828C51.6519 44.3401 52.302 45.1322 52.6859 46.059C53.0698 46.9858 53.1702 48.0056 52.9745 48.9895C52.7788 49.9734 52.2958 50.8771 51.5864 51.5864C50.8771 52.2958 49.9734 52.7788 48.9895 52.9745C48.0056 53.1702 46.9858 53.0698 46.059 52.6859C45.1322 52.302 44.3401 51.6519 43.7828 50.8179C43.2255 49.9838 42.928 49.0031 42.928 48L35.5893 40.6613V51.0427C36.2978 51.7523 36.7801 52.6561 36.9751 53.6397C37.1702 54.6234 37.0693 55.6428 36.6851 56.5691C36.301 57.4954 35.6509 58.287 34.817 58.844C33.9831 59.401 33.0028 59.6982 32 59.6982C30.9972 59.6982 30.0169 59.401 29.183 58.844C28.3491 58.287 27.699 57.4954 27.3149 56.5691C26.9307 55.6428 26.8298 54.6234 27.0249 53.6397C27.2199 52.6561 27.7022 51.7523 28.4107 51.0427V40.6613L21.072 48C21.072 49.0031 20.7745 49.9838 20.2172 50.8179C19.6599 51.6519 18.8678 52.302 17.941 52.6859C17.0142 53.0698 15.9944 53.1702 15.0105 52.9745C14.0266 52.7788 13.1229 52.2958 12.4136 51.5864C11.7042 50.8771 11.2212 49.9734 11.0255 48.9895C10.8298 48.0056 10.9302 46.9858 11.3141 46.059C11.698 45.1322 12.3481 44.3401 13.1821 43.7828C14.0162 43.2255 14.9969 42.928 16 42.928L23.3387 35.5893H12.9573C12.2477 36.2978 11.3439 36.7801 10.3603 36.9751C9.37662 37.1702 8.35723 37.0693 7.43092 36.6851C6.50461 36.301 5.71295 35.6509 5.156 34.817C4.59904 33.9831 4.30178 33.0028 4.30178 32C4.30178 30.9972 4.59904 30.0169 5.156 29.183C5.71295 28.3491 6.50461 27.699 7.43092 27.3149C8.35723 26.9307 9.37662 26.8298 10.3603 27.0249C11.3439 27.2199 12.2477 27.7022 12.9573 28.4107H23.3387L16 21.072C14.9969 21.072 14.0162 20.7745 13.1821 20.2172C12.3481 19.6599 11.698 18.8678 11.3141 17.941C10.9302 17.0142 10.8298 15.9944 11.0255 15.0105C11.2212 14.0266 11.7042 13.1229 12.4136 12.4136C13.1229 11.7042 14.0266 11.2212 15.0105 11.0255C15.9944 10.8298 17.0142 10.9302 17.941 11.3141C18.8678 11.698 19.6599 12.3481 20.2172 13.1821C20.7745 14.0162 21.072 14.9969 21.072 16L28.4107 23.3387V12.9573C27.7082 12.2543 27.2277 11.3605 27.0289 10.3867C26.8301 9.41301 26.9218 8.40234 27.2925 7.48025C27.6632 6.55816 28.2966 5.7653 29.1141 5.20015C29.9316 4.63499 30.8971 4.32245 31.8907 4.30133V4.30133Z" fill="black"/>
</svg>
