<svg width="32" height="32" viewBox="0 0 32 32" fill="none" xmlns="http://www.w3.org/2000/svg">
<g clip-path="url(#clip0)">
<circle cx="16" cy="15.9999" r="14.6667" fill="#44C654"/>
<path d="M3.13871 29.4538L4.57883 24.2748L8.34395 28.1115L3.13871 29.4538Z" fill="#44C654"/>
<path d="M23.2958 19.1761C22.8998 18.9774 20.9518 18.0201 20.5891 17.8867C20.2251 17.7547 19.9611 17.6894 19.6958 18.0867C19.4331 18.4827 18.6731 19.3747 18.4425 19.6387C18.2118 19.9041 17.9798 19.9361 17.5838 19.7387C17.1878 19.5387 15.9105 19.1214 14.3971 17.7721C13.2198 16.7214 12.4238 15.4241 12.1931 15.0267C11.9625 14.6307 12.1691 14.4161 12.3665 14.2187C12.5451 14.0414 12.7638 13.7561 12.9611 13.5254C13.1598 13.2934 13.2251 13.1281 13.3585 12.8627C13.4905 12.5987 13.4251 12.3681 13.3251 12.1694C13.2251 11.9707 12.4331 10.0201 12.1038 9.22672C11.7811 8.45472 11.4545 8.56005 11.2118 8.54672C10.9811 8.53605 10.7171 8.53339 10.4518 8.53339C10.1878 8.53339 9.75847 8.63205 9.39581 9.02939C9.03314 9.42539 8.00914 10.3841 8.00914 12.3347C8.00914 14.2841 9.42914 16.1681 9.62647 16.4334C9.82514 16.6974 12.4211 20.7001 16.3958 22.4161C17.3411 22.8241 18.0785 23.0681 18.6545 23.2494C19.6038 23.5521 20.4678 23.5094 21.1491 23.4067C21.9105 23.2934 23.4931 22.4481 23.8238 21.5227C24.1545 20.5974 24.1545 19.8041 24.0545 19.6387C23.9558 19.4734 23.6918 19.3747 23.2945 19.1761H23.2958ZM16.0665 29.0467H16.0611C13.7008 29.0469 11.3839 28.4123 9.35314 27.2094L8.87181 26.9241L3.88381 28.2334L5.21447 23.3694L4.90114 22.8707C3.58173 20.7697 2.88373 18.3383 2.88781 15.8574C2.88914 8.59072 8.80247 2.67872 16.0718 2.67872C19.5918 2.67872 22.9011 4.05205 25.3891 6.54272C26.6167 7.76488 27.5897 9.21836 28.2518 10.819C28.9139 12.4197 29.252 14.1358 29.2465 15.8681C29.2425 23.1347 23.3305 29.0467 16.0665 29.0467V29.0467ZM27.2838 4.65072C25.8147 3.17195 24.0668 1.99944 22.1413 1.20112C20.2157 0.402806 18.1509 -0.005435 16.0665 5.46367e-05C7.32647 5.46367e-05 0.213139 7.11339 0.209139 15.8561C0.209139 18.6507 0.938472 21.3787 2.32647 23.7827L0.0758057 32.0001L8.48247 29.7947C10.8073 31.0613 13.4124 31.7251 16.0598 31.7254H16.0665C24.8051 31.7254 31.9198 24.6121 31.9238 15.8681C31.9303 13.7844 31.5235 11.7202 30.727 9.79477C29.9306 7.86934 28.7603 6.12095 27.2838 4.65072V4.65072Z" fill="white"/>
</g>
<defs>
<clipPath id="clip0">
<rect width="32" height="32" fill="white"/>
</clipPath>
</defs>
</svg>
